<?xml version="1.0" encoding="UTF-8" standalone="no" ?>
<!DOCTYPE svg PUBLIC "-//W3C//DTD SVG 1.1//EN" "http://www.w3.org/Graphics/SVG/1.1/DTD/svg11.dtd">
<svg xmlns="http://www.w3.org/2000/svg" xmlns:xlink="http://www.w3.org/1999/xlink" version="1.1" width="1080" height="1080" viewBox="0 0 1080 1080" xml:space="preserve">
<desc>Created with Fabric.js 5.2.4</desc>
<defs>
</defs>
<g transform="matrix(1 0 0 1 540 540)" id="80bae6f8-562d-42de-984e-2c47cc9b401c"  >
<rect style="stroke: none; stroke-width: 1; stroke-dasharray: none; stroke-linecap: butt; stroke-dashoffset: 0; stroke-linejoin: miter; stroke-miterlimit: 4; fill: rgb(255,255,255); fill-rule: nonzero; opacity: 1; visibility: hidden;" vector-effect="non-scaling-stroke"  x="-540" y="-540" rx="0" ry="0" width="1080" height="1080" />
</g>
<g transform="matrix(1 0 0 1 540 540)" id="84082dce-b6df-43c3-a707-9c94c13b6413"  >
</g>
<g transform="matrix(1 0 0 1 540 540)"  >
<g style="" vector-effect="non-scaling-stroke"   >
		<g transform="matrix(33.33 0 0 33.33 0 31.52)"  >
<path style="stroke: rgb(2,2,2); stroke-width: 1.91; stroke-dasharray: none; stroke-linecap: butt; stroke-dashoffset: 0; stroke-linejoin: miter; stroke-miterlimit: 10; fill: rgb(255,255,255); fill-rule: nonzero; opacity: 1;" vector-effect="non-scaling-stroke"  transform=" translate(-12.02, -13.45)" d="M 18.37 9.18 C 17.42773884391373 9.377129319208924 16.75960023200095 10.217555246143244 16.78 11.18 L 16.78 11.18 C 16.777360799231907 11.91374123259701 16.482660334136494 12.616231360159674 15.961016586684103 13.132245858538838 C 15.439372839231712 13.648260356918001 14.733726679908685 13.935321746316024 14 13.93 L 10 13.93 C 8.47569409046701 13.93 7.24 12.69430590953299 7.24 11.17 L 7.24 11.17 C 7.260399767999053 10.207555246143244 6.592261156086271 9.367129319208924 5.65 9.17 C 5.09269416832633 9.072235311249816 4.5207249026935745 9.226597648348699 4.088276567163087 9.591475931452548 C 3.655828231632599 9.956354214556397 3.407414625318548 10.494189925662633 3.41 11.06 L 3.41 11.06 C 3.4155170240219945 14.756401979087967 6.413593903729927 17.750004117184396 10.109999999999998 17.75 L 13.93 17.75 C 17.626406096270074 17.750004117184396 20.624482975978005 14.756401979087967 20.63 11.059999999999995 L 20.63 11.059999999999999 C 20.630696822206584 10.491749302908998 20.378334364249316 9.952695749480146 19.941475037793513 9.589290646056735 C 19.50461571133771 9.225885542633325 18.92862889179647 9.075869785576689 18.37 9.18 Z" stroke-linecap="round" />
</g>
		<g transform="matrix(33.33 0 0 33.33 -0.67 -234.67)"  >
<path style="stroke: rgb(2,2,2); stroke-width: 1.91; stroke-dasharray: none; stroke-linecap: butt; stroke-dashoffset: 0; stroke-linejoin: miter; stroke-miterlimit: 10; fill: rgb(255,255,255); fill-rule: nonzero; opacity: 1;" vector-effect="non-scaling-stroke"  transform=" translate(-12, -5.46)" d="M 6.26 9.42 L 6.26 7.24 C 6.26 4.069885535971245 8.829885535971247 1.4999999999999991 12 1.4999999999999991 C 15.170114464028755 1.4999999999999991 17.740000000000002 4.069885535971244 17.740000000000002 7.239999999999998 L 17.740000000000002 9.42" stroke-linecap="round" />
</g>
		<g transform="matrix(33.33 0 0 33.33 -176 255)"  >
<line style="stroke: rgb(2,2,2); stroke-width: 1.91; stroke-dasharray: none; stroke-linecap: butt; stroke-dashoffset: 0; stroke-linejoin: miter; stroke-miterlimit: 10; fill: rgb(255,255,255); fill-rule: nonzero; opacity: 1;" vector-effect="non-scaling-stroke"  x1="-0.48" y1="3.3499999999999996" x2="0.48" y2="-3.3499999999999996" />
</g>
		<g transform="matrix(33.33 0 0 33.33 174.67 255)"  >
<line style="stroke: rgb(2,2,2); stroke-width: 1.91; stroke-dasharray: none; stroke-linecap: butt; stroke-dashoffset: 0; stroke-linejoin: miter; stroke-miterlimit: 10; fill: rgb(255,255,255); fill-rule: nonzero; opacity: 1;" vector-effect="non-scaling-stroke"  x1="-0.47999999999999865" y1="-3.3499999999999996" x2="0.47999999999999865" y2="3.3499999999999996" />
</g>
</g>
</g>
</svg>